<?xml version="1.0" encoding="UTF-8"?>
<svg id="_레이어_1" xmlns="http://www.w3.org/2000/svg" version="1.1" viewBox="0 0 24 24">
  <!-- Generator: Adobe Illustrator 29.0.1, SVG Export Plug-In . SVG Version: 2.1.0 Build 192)  -->
  <defs>
    <style>
      .st0 {
        fill: #555;
      }
    </style>
  </defs>
  <path class="st0" d="M12.2,2C6.6,2,2,6.5,2,12.2s3.2,8.7,7.7,9.8v-2.2h-1.3c-.7,0-1.3-.3-1.6-.8-.3-.6-.4-1.5-1.2-2.1-.2-.2,0-.4.2-.4.5.1.9.5,1.3,1s.6.6,1.3.6.9,0,1.4-.1c.3-.7.7-1.3,1.3-1.6-3.4-.3-5-2-5-4.3s.4-1.9,1.1-2.7c-.2-.8-.5-2.4,0-3,1.5,0,2.4,1,2.6,1.2.7-.3,1.6-.4,2.4-.4s1.7.1,2.4.4c.2-.3,1.1-1.2,2.6-1.2.6.6.3,2.2,0,3,.7.8,1.1,1.7,1.1,2.7,0,2.2-1.6,4-5,4.3.9.5,1.6,1.8,1.6,2.8v2.5c4-1.4,6.8-5.2,6.8-9.5S17.7,2,12.2,2Z"/>
</svg>