<?xml version="1.0" encoding="UTF-8"?>
<svg id="_레이어_1" data-name="레이어_1" xmlns="http://www.w3.org/2000/svg" viewBox="0 0 15.87 15.49">
  <defs>
    <style>
      .cls-1 {
        fill: #555;
      }
    </style>
  </defs>
  <path class="cls-1" d="M15.87,2.54v10.42s-.02.06-.03.09c-.14,1.23-1.22,2.46-2.89,2.45-3.35-.01-6.7,0-10.04,0-.18,0-.35,0-.53-.03C.97,15.21,0,14.07,0,12.63c0-3.25,0-6.51,0-9.76C0,1.25,1.22.01,2.82,0c3.41,0,6.82,0,10.23,0,1.33,0,2.43.88,2.74,2.15.03.12.05.25.08.38ZM9.03,10.94c.21,0,.41,0,.62,0,.16,0,.17-.02.12-.17-.07-.2-.14-.41-.22-.61-.71-2.01-1.43-4.02-2.14-6.04-.04-.11-.09-.15-.21-.15-.51,0-1.01,0-1.52,0-.12,0-.16.03-.17.15-.02.21-.05.42-.12.62-.23.7-.48,1.4-.73,2.11-.45,1.29-.89,2.57-1.34,3.86-.08.23-.07.24.18.24.33,0,.66,0,.99,0,.16,0,.23-.06.27-.2.13-.44.28-.87.42-1.31.03-.1.07-.14.18-.14.73,0,1.47,0,2.2,0,.1,0,.14.04.17.13.15.45.31.91.46,1.36.04.12.09.17.22.16.2,0,.4,0,.6,0ZM11.97,8.31c0-.83,0-1.66,0-2.49,0-.12-.04-.17-.16-.16-.39,0-.77,0-1.16,0-.12,0-.17.04-.17.16,0,1.65,0,3.3,0,4.96,0,.14.06.18.19.18.37,0,.73,0,1.1,0,.16,0,.2-.05.2-.2,0-.81,0-1.62,0-2.43ZM12.06,4.26c0-.49-.32-.82-.8-.83-.48,0-.84.35-.84.82,0,.5.33.84.83.85.48,0,.82-.35.82-.84Z"/>
  <path class="cls-1" d="M7.29,7.94h-1.68c.27-.92.54-1.82.81-2.72.01,0,.02,0,.03,0,.28.9.55,1.8.84,2.73Z"/>
</svg>