<?xml version="1.0" encoding="UTF-8"?>
<svg id="_레이어_1" data-name="레이어_1" xmlns="http://www.w3.org/2000/svg" version="1.1" viewBox="0 0 24 24">
  <!-- Generator: Adobe Illustrator 29.0.1, SVG Export Plug-In . SVG Version: 2.1.0 Build 192)  -->
  <defs>
    <style>
      .st0 {
        fill: #555;
      }
    </style>
  </defs>
  <path class="st0" d="M14.8,1.8l-11.9.5s0,0,0,0c0,0,0,0,0,0-.5,0-.9.4-.9.9v13.2c0,.6.2,1.1.5,1.6l2.5,3.8c.2.3.5.4.9.4l15.2-1c.5,0,.9-.4.9-1V5.6c0-.2,0-.5-.3-.6,0,0,0,0-.1-.1,0,0,0,0,0,0,0,0-.1,0-.2-.1l-3.9-2.2h0c-.8-.5-1.8-.8-2.7-.7h0ZM14.9,2.7s0,0,0,0c.7,0,1.5.1,2.1.6,0,0,0,0,0,0l2.4,1.4-12.8.4-2.3-1.9,10.5-.4ZM20.1,6.6v12.9l-13.3.8V7l13.3-.4ZM18.6,8.4c-1,0-1.9.1-2.9.2-.3,0-.6.3-.6.6,0,.1,0,.2.2.2.3,0,.6,0,.9,0v5.6c0-.1-.1-.2-.2-.3-1.2-1.9-2.5-3.8-3.7-5.7-.2-.3-.4-.4-.7-.4-.9,0-1.8.1-2.6.2-.5,0-.8.5-.6.9.3,0,.7,0,1,0v8c-.2,0-.4.1-.7.2-.2,0-.3.2-.4.4,0,.2,0,.3.2.2.7,0,1.4,0,2.1-.1.3,0,.6,0,.9,0,.4,0,.6-.3.7-.7-.4,0-.7-.2-1.1-.2-.2,0-.2,0-.2-.3,0-1.9,0-3.7,0-5.6,0,0,0-.1,0-.2,0,0,0,.1,0,.1,1,1.5,1.9,3,2.9,4.5.4.6.8,1.3,1.3,1.9.3.5.8.6,1.3.5.3,0,.6-.2,1-.3.2,0,.2-.2.2-.4,0-2.7,0-5.5,0-8.2s0-.5.5-.6c.5,0,.6-.3.5-.8h0Z"/>
</svg>