<?xml version="1.0" encoding="UTF-8"?>
<svg id="_레이어_1" data-name="레이어_1" xmlns="http://www.w3.org/2000/svg" viewBox="0 0 15.87 15.49">
  <defs>
    <style>
      .cls-1 {
        fill: #fff;
      }

      .cls-2 {
        fill: #555;
      }
    </style>
  </defs>
  <path class="cls-2" d="M15.87,2.54v10.42s-.02.06-.03.09c-.14,1.23-1.22,2.46-2.89,2.45-3.35-.01-6.7,0-10.04,0-.18,0-.35,0-.53-.03C.97,15.21,0,14.07,0,12.63c0-3.25,0-6.51,0-9.76C0,1.25,1.22.01,2.82,0c3.41,0,6.82,0,10.23,0,1.33,0,2.43.88,2.74,2.15.03.12.05.25.08.38ZM5.01,8.74s.08,0,.11,0c.46-.02.93,0,1.39-.07,1.17-.16,2.07-.96,2.06-2.34,0-.74-.25-1.38-.86-1.84-.45-.34-.97-.51-1.53-.53-.83-.02-1.66,0-2.49.01-.11,0-.12.07-.12.15,0,2.22,0,4.43,0,6.65,0,.14.05.17.17.16.36,0,.71,0,1.07,0,.16,0,.2-.06.2-.21,0-.6,0-1.21,0-1.81,0-.06,0-.12,0-.18ZM9.3,9.43c0,.08-.02.13-.02.19,0,.32,0,.64,0,.96,0,.14.05.2.17.25.42.17.87.23,1.32.25.49.02.97-.03,1.42-.24.55-.26.87-.68.93-1.29.06-.64-.2-1.13-.77-1.43-.27-.15-.56-.27-.84-.4-.23-.11-.47-.22-.69-.35-.11-.06-.18-.18-.14-.32.03-.14.13-.22.27-.25.13-.02.27-.05.4-.04.46.01.9.08,1.32.29.14.07.19.03.19-.13,0-.32,0-.63,0-.95,0-.12-.04-.2-.16-.22-.39-.06-.77-.15-1.16-.17-.48-.03-.95.02-1.38.26-.51.27-.8.69-.85,1.26-.05.61.21,1.08.73,1.39.38.22.8.38,1.2.58.12.06.25.12.35.21.19.17.14.42-.1.51-.06.02-.13.04-.19.05-.63.08-1.22-.05-1.78-.33-.06-.03-.12-.06-.2-.1Z"/>
  <path class="cls-1" d="M5.01,8.74c0,.06,0,.12,0,.18,0,.6,0,1.21,0,1.81,0,.15-.03.21-.2.21-.36-.01-.71,0-1.07,0-.12,0-.18-.03-.17-.16,0-2.22,0-4.43,0-6.65,0-.09,0-.15.12-.15.83,0,1.66-.03,2.49-.01.55.01,1.08.18,1.53.53.61.46.86,1.09.86,1.84,0,1.38-.9,2.17-2.06,2.34-.46.06-.93.05-1.39.07-.03,0-.06,0-.11,0ZM5.02,7.51c.37-.02.73-.03,1.08-.07.18-.02.36-.09.52-.18.4-.21.53-.57.5-1-.02-.39-.21-.69-.57-.86-.49-.23-1.02-.15-1.54-.15v2.25Z"/>
  <path class="cls-1" d="M9.3,9.43c.08.04.14.07.2.1.56.27,1.15.41,1.78.33.07,0,.13-.03.19-.05.24-.1.3-.34.1-.51-.1-.09-.23-.15-.35-.21-.4-.19-.82-.35-1.2-.58-.52-.3-.78-.78-.73-1.39.05-.58.34-.99.85-1.26.43-.23.9-.29,1.38-.26.39.03.77.11,1.16.17.12.02.17.1.16.22,0,.31,0,.63,0,.95,0,.16-.05.19-.19.13-.42-.2-.86-.28-1.32-.29-.13,0-.27.02-.4.04-.14.02-.23.1-.27.25-.03.14.03.25.14.32.22.13.46.23.69.35.28.13.57.25.84.4.56.31.83.79.77,1.43-.05.61-.38,1.03-.93,1.29-.45.21-.93.26-1.42.24-.45-.02-.89-.08-1.32-.25-.12-.05-.18-.12-.17-.25,0-.32,0-.64,0-.96,0-.05.01-.11.02-.19Z"/>
  <path class="cls-2" d="M5.02,7.51v-2.25c.52,0,1.05-.08,1.54.15.36.17.54.47.57.86.02.43-.1.79-.5,1-.16.08-.34.16-.52.18-.35.04-.71.05-1.08.07Z"/>
</svg>