<?xml version="1.0" encoding="UTF-8"?>
<svg id="_레이어_1" xmlns="http://www.w3.org/2000/svg" version="1.1" viewBox="0 0 24 24">
  <!-- Generator: Adobe Illustrator 29.0.1, SVG Export Plug-In . SVG Version: 2.1.0 Build 192)  -->
  <defs>
    <style>
      .st0 {
        fill: #555;
      }
    </style>
  </defs>
  <path class="st0" d="M12,14c.6,0,1-.2,1.4-.6s.6-.9.6-1.4-.2-1-.6-1.4-.9-.6-1.4-.6-1,.2-1.4.6-.6.9-.6,1.4.2,1,.6,1.4.9.6,1.4.6ZM8,18h8v-.6c0-.4-.1-.8-.3-1.1s-.5-.6-.9-.8-.9-.3-1.3-.4-.9-.2-1.4-.2-1,0-1.4.2-.9.2-1.3.4c-.4.2-.7.4-.9.8-.2.4-.3.7-.3,1.1v.6h-.2ZM18,22H6c-.5,0-1-.2-1.4-.6s-.6-.9-.6-1.4V4c0-.6.2-1,.6-1.4s.9-.6,1.4-.6h8l6,6v12c0,.6-.2,1-.6,1.4s-.9.6-1.4.6ZM18,20v-11.1l-4.9-4.9h-7.1v16h12ZM6,20V4v16Z"/>
</svg>